<svg xmlns="http://www.w3.org/2000/svg" viewBox="0 0 186.87 151.84"><defs><style>.cls-1{fill:#34b3d1;}.cls-2{fill:#5573b4;}.cls-3{fill:#99d9e8;}</style></defs><g id="图层_2" data-name="图层 2"><g id="图层_1-2" data-name="图层 1"><path class="cls-1" d="M72.57.29A7.34,7.34,0,0,1,75.19,0c1.74,0,2.81.29,3.19.87q.3.87,4.36,47.5Q87,95.73,87.1,95.87q.59,1.75,5.37,2a23.75,23.75,0,0,0,2.91.14h3.78l.43.58c.49.49.53,1.51.15,3.05-.39,1.27-.83,2-1.31,2.18a25.73,25.73,0,0,1-4.21,0q-9.89-.44-23.39-.14l-9.3.29a4.44,4.44,0,0,1-2-.29c-.58-.58-.63-1.6-.15-3a5.67,5.67,0,0,1,.73-2.18l.58-.44h2.91a25.34,25.34,0,0,0,6.68-1,4.31,4.31,0,0,0,2-1.17c.49-.48.73-.82.73-1L71,72.49V72.2H35.82l-5.37,9.15q-5.52,9.3-5.67,10-1.3,2.76.44,4.5c1.06,1.17,3,1.89,5.81,2.18,1.06,0,1.74.2,2,.58a1.28,1.28,0,0,1,.44.88l-1,3.77c-.29.49-1.55.68-3.78.58h-1A236.88,236.88,0,0,0,2.12,104H1l-.44-.44c-.58-.58-.68-1.59-.29-3S1.2,98.3,2,98.2a6.43,6.43,0,0,1,1.74-.15l3.19-.43a18.73,18.73,0,0,0,7.7-2.91,25.44,25.44,0,0,0,3.64-3.77l1-1.46q.15-.14,26.29-44.45Q71.28,1.17,71.7,1A1.4,1.4,0,0,1,72.57.29Zm-4.06,43q-2-21.06-2-22.37c0-.48-.29-.24-.87.73L39.45,66.1q0,.14,15.55.14H70.54l-.15-.44Q70.39,66,68.51,43.29Z"/><path class="cls-2" d="M83.56,18.65c.66,0,1.31-.1,2-.1A60.12,60.12,0,0,1,138,49.28l14.59.08a73.21,73.21,0,0,0-67-43.82c-1.07,0-2.13,0-3.19.08C82.62,8.36,83,12.47,83.56,18.65Z"/><path class="cls-2" d="M149.42,98.16a27.42,27.42,0,0,0,7.28-2.36,72.78,72.78,0,0,0,2-17.07,73.85,73.85,0,0,0-1.88-16.47c-1.54,0-4.36-.1-9.48-.17h-4a59.24,59.24,0,0,1-1.09,36.6A48.24,48.24,0,0,0,149.42,98.16Z"/><path class="cls-2" d="M15.47,88.92l1-1.35c.3-.5,2.17-3.63,9.38-15.83A60.1,60.1,0,0,1,50.44,29.91c5.51-9.4,9.43-16,12.2-20.7A73.13,73.13,0,0,0,13.42,91.15,18.07,18.07,0,0,0,15.47,88.92Z"/><path class="cls-2" d="M79.68,147.76a7.2,7.2,0,0,1,1.8-3.79l1.45-1.44h4.18c6.7,0,8.34-.52,8.6-.63l.25-.09s0,0,0,0c.13-.46.44-1.64,1-4a60,60,0,0,1-64.55-30.72,11.51,11.51,0,0,1-2.72.26l-1.19,0h-.86c-3.52-.12-6.72-.2-9.64-.23A73.21,73.21,0,0,0,79.5,151.65,9.27,9.27,0,0,1,79.68,147.76Z"/><path class="cls-2" d="M142.37,110.9h-6a60.55,60.55,0,0,1-16,16.85l-3.59,14.53c1,.09,2.45.19,4.63.24a73.53,73.53,0,0,0,30.15-32.12C149.07,110.66,146.08,110.83,142.37,110.9Z"/><path class="cls-3" d="M107.3,53q.44-.29,28-.29l27.45.15,1.89.29a28.8,28.8,0,0,1,9.73,3q10.32,4.94,12.06,15,2.33,12.34-8.86,23.39a47,47,0,0,1-22.81,11.91,69.39,69.39,0,0,1-12.49,1H121.83l-.15.58L113,143.35a1.2,1.2,0,0,0,0,1.16,1,1,0,0,0,.87.72c1.06.39,3.63.64,7.7.73h4.21l.44.58c.48.49.53,1.45.14,2.91a5.22,5.22,0,0,1-1.16,2.32,39.8,39.8,0,0,1-5.38,0q-11.48-.57-28.9-.14c-1.07.09-1.94.14-2.62.14-3.19.1-5-.14-5.37-.73-.2-.29-.15-1.16.14-2.61a4.06,4.06,0,0,1,.87-2l.44-.44h2.76c5.13,0,8.43-.29,9.88-.87.87-.1,1.6-.78,2.18-2q.43-1.16,10.31-41.11,10.17-40.08,10.17-41.25c0-.77-.24-1.21-.73-1.31a45.49,45.49,0,0,0-7.7-.72H107l-.58-.58c-.48-.39-.53-1.21-.15-2.47A6,6,0,0,1,107.3,53Zm51.86,6q-1-.15-11.77-.29c-7.06,0-10.7.05-10.89.14a3.73,3.73,0,0,0-3.2,1.6q-.44.87-5.37,20.92-5.09,20.48-5.23,20.62,0,.3,10.89.3,13.23,0,16.56-.73,10-1.89,14.68-7.84,3.48-4.22,5.66-13.08a32.93,32.93,0,0,0,1.45-9.3,13,13,0,0,0-.29-3.48A8.85,8.85,0,0,0,168,62.43Q165,60,159.16,59Z"/></g></g></svg>